<svg viewBox="0 0 1893 1893" xmlns="http://www.w3.org/2000/svg" xml:space="preserve" style="fill-rule:evenodd;clip-rule:evenodd;stroke-linejoin:round;stroke-miterlimit:2"><path style="fill:none" d="M0 0h2400v2400H0z" transform="scale(.78871)"/><path d="M477.797 855.533c34.663-227.716 231.289-402.172 468.656-402.172 238.577 0 435.987 176.231 469.167 405.642-1.43.52-2.86 1.075-4.27 1.665a67.917 67.917 0 0 0-5.76 2.722 21.299 21.299 0 0 0-15.85-7.068h-34.18c-11.79 0-21.34 9.55-21.34 21.336v163.722c0 11.78 9.55 21.33 21.34 21.33h44.68c.24 0 .47 0 .71-.01-40.51 136.29-140.63 246.91-270.13 301.63-88.01 37.18-118.52 56.93-144.861 109.61-2.562 5.13-4.754 10-6.789 14.54-8.408 18.74-14.163 31.55-32.717 31.55-18.555 0-24.303-12.81-32.718-31.55-2.035-4.54-4.221-9.41-6.789-14.54-26.337-52.68-59.259-72.43-144.856-109.61-129.296-54.63-229.308-164.99-269.93-300.95 1.786-.3 3.512-.63 5.178-.99a133.373 133.373 0 0 0 30.34-10.53 21.333 21.333 0 0 0 11.981-19.18v-34.479c0-3.092-.669-6.087-1.911-8.808a21.419 21.419 0 0 0 4.824-3.563v55.55c0 11.78 9.551 21.33 21.332 21.33h44.682c11.781 0 21.333-9.55 21.333-21.33v-77.069c0-12.952 1.229-23.006 4.953-29.924 1.522-2.836 4.958-2.712 9.098-2.712.968 0 2.393.229 3.014.344 1.92 3.11 2.04 7.792 2.04 13.703v95.658c0 11.78 9.552 21.33 21.333 21.33h44.676c1.736 0 3.423-.2 5.04-.59 45.941 77.06 130.132 128.69 226.38 128.69 95.997 0 180.007-51.37 226.027-128.1h.15c11.78 0 21.34-9.55 21.34-21.33v-23.74c9.06-24.824 14.48-51.413 15.63-79.104 2.7-.576 5.48-.863 8.32-.863 1.29 0 2.77.115 4.44.31 1.47.168 2.68.327 3.58.547a21.32 21.32 0 0 0 16.83-2.822v105.672c0 11.78 9.54 21.33 21.32 21.33h44.69c11.78 0 21.32-9.55 21.32-21.33V877.658c0-5.902-2.39-11.229-6.25-15.09 5.21-6.591 8.36-15.488 8.36-27.194 0-17.546-6.94-28.69-16.96-35.165-8.07-5.209-17.58-8.06-28.67-8.06-11.45 0-21.05 2.947-28.98 8.173-9.78 6.454-16.63 17.559-16.63 35.052 0 9.27 1.96 16.777 5.32 22.76a21.267 21.267 0 0 0-7.25-3.102c-2.6-.583-6.07-1.069-10.41-1.361-3.54-.238-6.61-.353-9.22-.353-6.84 0-13.32.837-19.44 2.491-31.2-110.651-132.89-191.749-253.517-191.749-122.008 0-224.642 82.966-254.561 195.56-10.197-4.134-21.851-6.302-35.028-6.302-13.093 0-25.477 2.474-37.157 7.35a67.434 67.434 0 0 0-5.758 2.722 21.326 21.326 0 0 0-15.859-7.068h-34.186c-11.781 0-21.332 9.55-21.332 21.336v31.993c-4.439-12.126-11.124-22.403-19.83-30.915-12.007-11.733-26.934-19.616-44.945-23.203Z" style="fill:#f80"/><path d="M254.741 819.943h-62.372c-4.021 0-7.33 3.309-7.33 7.33v214.107c0 4.02 3.309 7.33 7.33 7.33h45.281c4.048 0 7.33-3.28 7.33-7.33v-74.837h12.88l48.826 78.697a7.345 7.345 0 0 0 6.229 3.47h50.379c2.711 0 5.201-1.5 6.473-3.89a7.334 7.334 0 0 0-.398-7.54l-58.358-86.424a95.68 95.68 0 0 0 13.653-9.555c6.858-5.733 12.372-12.692 16.531-20.899 4.178-8.245 6.339-17.882 6.339-28.952 0-24.259-8.114-42.2-23.725-54.111l-.002-.001c-14.87-11.338-37.827-17.395-69.066-17.395Zm-3.297 51.846c12.836 0 22.39 1.579 28.545 5.364l.005.003c4.928 3.024 7 8.315 7 15.495 0 7.175-2.12 12.713-6.882 16.372l-.005.004c-5.575 4.291-14.897 5.979-27.764 5.979h-7.363v-43.217h6.464Zm202.71-4.465c-16.748 0-31.409 3.548-44.024 10.507h-.001c-12.857 7.093-22.928 17.697-30.133 31.893-6.95 13.69-10.538 30.675-10.538 50.991 0 20.507 4.028 37.356 11.798 50.635h.001c7.953 13.58 18.898 23.74 32.815 30.48l.004.01c13.522 6.54 29.073 9.87 46.674 9.87 13.202 0 24.411-1.03 33.633-3.02a118.671 118.671 0 0 0 27.158-9.42 7.338 7.338 0 0 0 4.114-6.59v-34.479c0-4.021-3.309-7.33-7.33-7.33a7.326 7.326 0 0 0-3.164.718c-8.702 4.164-17.164 7.242-25.393 9.231-8.175 1.97-17.148 2.94-26.918 2.94-10.332 0-18.496-2.7-24.318-8.61l-.003-.003c-4.402-4.462-7.135-10.22-8.377-17.207h97.468c4.021 0 7.33-3.309 7.33-7.33v-21.592c0-26.094-7.521-46.114-21.996-60.266l-.002-.001c-14.473-14.139-34.02-21.427-58.798-21.427Zm.298 46.449c7.742 0 13.643 2.131 17.44 7.045 2.822 3.655 4.68 7.92 5.642 12.777h-46.111c1.263-5.787 3.391-10.341 6.622-13.576 4.243-4.238 9.742-6.246 16.407-6.246Zm153.39-28.666-2.705-9.463a7.348 7.348 0 0 0-7.048-5.316h-34.186c-4.021 0-7.33 3.309-7.33 7.33v163.722c0 4.05 3.282 7.33 7.33 7.33h44.682c4.048 0 7.33-3.28 7.33-7.33v-77.069c0-15.862 2.063-28.08 6.622-36.559 3.797-7.061 11.105-10.083 21.432-10.083 6.389 0 11.202 1.671 14.119 5.764 3.513 4.94 4.938 12.418 4.938 22.289v95.658c0 4.05 3.282 7.33 7.33 7.33h44.676c4.048 0 7.33-3.28 7.33-7.33V934.626c0-23.576-6.419-40.522-18.332-51.19-11.831-10.601-27.512-16.112-47.167-16.112-11.191 0-21.779 2.095-31.763 6.265-6.652 2.779-12.405 6.617-17.258 11.518Zm244.652-6.048a70.005 70.005 0 0 0-5.631-3.779c-8.577-5.203-19.51-7.956-32.861-7.956-21.164 0-38.251 8.127-51.301 24.324-12.452 15.454-19.007 38.111-19.007 68.166 0 29.857 6.517 52.366 18.857 67.716 12.961 16.13 29.72 24.18 50.246 24.18 13.423 0 24.308-2.84 32.717-8.19 4.881-3.11 9.183-6.62 12.902-10.54l4.569 11.17a7.343 7.343 0 0 0 6.785 4.56h34.177c4.048 0 7.33-3.28 7.33-7.33V813.482c0-4.021-3.309-7.33-7.33-7.33h-44.676c-4.021 0-7.33 3.309-7.33 7.33v52.479c0 4.435.181 8.801.553 13.098Zm-24.11 122.311c-7.588 0-13.49-2.96-17.666-8.99-4.934-7.143-7.095-17.851-7.095-31.965 0-14.208 2.22-25.149 7.186-32.701 4.132-6.252 9.765-9.444 16.982-9.444 9.981 0 17.078 2.646 20.777 9.068l.004.007c4.408 7.633 6.371 18.59 6.371 32.769v4.696c-.355 12.759-2.429 22.402-6.819 28.789l-.014.02c-3.768 5.522-10.503 7.751-19.726 7.751ZM1018.2 867.324c-16.74 0-31.415 3.548-44.029 10.507l-.005.002c-12.839 7.093-22.924 17.698-30.122 31.894-6.944 13.688-10.536 30.673-10.536 50.988 0 20.506 4.026 37.355 11.789 50.635.002 0 .003 0 .005.01 7.966 13.57 18.901 23.73 32.827 30.48 13.514 6.54 29.061 9.87 46.671 9.87 13.21 0 24.42-1.03 33.63-3.02 9.37-2.02 18.43-5.15 27.17-9.42a7.347 7.347 0 0 0 4.11-6.59V998.197c0-4.019-3.31-7.327-7.33-7.327-1.09 0-2.17.245-3.16.718-8.71 4.164-17.16 7.242-25.4 9.232-8.18 1.97-17.15 2.94-26.92 2.94-10.34 0-18.49-2.7-24.32-8.612v-.003c-4.408-4.461-7.136-10.218-8.375-17.205h97.465c4.05 0 7.34-3.281 7.34-7.33v-21.592c0-26.094-7.53-46.114-22-60.266-.01 0-.01-.001-.01-.002-14.47-14.138-34.01-21.426-58.8-21.426Zm.3 46.449c7.74 0 13.64 2.133 17.45 7.046 2.82 3.655 4.67 7.92 5.63 12.776h-46.105c1.262-5.789 3.394-10.344 6.625-13.579 4.24-4.237 9.74-6.243 16.4-6.243Zm153.85-23.699-3.38-14.121a7.35 7.35 0 0 0-7.13-5.625h-33.89c-4.02.003-7.33 3.31-7.33 7.33v163.722c0 4.05 3.29 7.33 7.33 7.33h44.68c4.05 0 7.33-3.28 7.33-7.33v-83.359c0-8.567 1.54-15.381 5.08-20.315v-.005c3.46-4.821 8-8.306 13.62-10.479 6.15-2.369 12.57-3.554 19.26-3.554 1.75 0 3.77.138 6.04.401v.001c2.21.254 3.99.53 5.35.874 2.09.532 4.32.111 6.07-1.147a7.326 7.326 0 0 0 3.04-5.385l3.29-41.983c.29-3.627-2.17-6.946-5.72-7.73-2.07-.458-4.83-.824-8.28-1.058-3.19-.216-5.97-.317-8.3-.317-12.6 0-23.72 3.488-33.35 10.357v.003c-5.19 3.712-9.76 7.843-13.71 12.39Zm143.76-12.416c0-4.048-3.28-7.33-7.33-7.33h-44.69c-4.02 0-7.33 3.308-7.33 7.329v163.723c0 4.05 3.28 7.33 7.33 7.33h44.69c4.05 0 7.33-3.28 7.33-7.33V877.658Zm-29.53-71.506c-8.4 0-15.45 2.026-21.27 5.852-.01.003-.01.006-.02.009-6.43 4.252-10.33 11.841-10.33 23.361 0 11.223 3.82 18.758 10.24 23.148l.03.018c5.84 3.955 12.92 6.057 21.35 6.057 8.17 0 15.21-2.071 21.15-6.022.01-.003.01-.007.02-.01 6.58-4.398 10.44-11.946 10.44-23.191 0-11.542-3.94-19.142-10.54-23.402v-.003c-5.92-3.82-12.93-5.817-21.07-5.817Zm112.91 78.953-2.71-9.463a7.337 7.337 0 0 0-7.04-5.314h-34.18c-4.02 0-7.33 3.308-7.33 7.329v163.723c0 4.05 3.28 7.33 7.33 7.33h44.68c4.04 0 7.33-3.28 7.33-7.33v-77.069c0-15.862 2.06-28.08 6.62-36.559 3.79-7.061 11.1-10.083 21.43-10.083 6.39 0 11.2 1.673 14.12 5.764 3.51 4.942 4.94 12.419 4.94 22.289v95.658c0 4.05 3.28 7.33 7.33 7.33h44.67c4.05 0 7.33-3.28 7.33-7.33V934.626c0-23.575-6.43-40.521-18.33-51.187v-.002c-11.83-10.601-27.51-16.113-47.17-16.113-11.19 0-21.77 2.095-31.76 6.265-6.65 2.778-12.4 6.616-17.26 11.516Zm244.11 154.115-.01.96v3.3c0 10.13-1.97 17.84-6.66 22.91-4.52 4.88-11.44 6.95-20.49 6.95-21.59 0-41.94-4.01-61.04-12.03-2.26-.95-4.85-.7-6.89.65a7.327 7.327 0 0 0-3.28 6.11v35.68c0 3.04 1.88 5.76 4.72 6.85 9.91 3.79 20.08 6.43 30.53 7.91 10.21 1.44 21.3 2.17 33.26 2.17 29.18 0 51.11-6.95 66.02-20.13 15.24-13.48 23.17-33.02 23.17-58.87V877.658c0-4.048-3.28-7.33-7.33-7.33h-37.77c-3.55.001-6.62 2.584-7.23 6.086l-1.21 7.009c-11.64-10.719-26.22-16.099-43.76-16.099-22.08 0-39.42 8.529-52.04 25.439-11.99 16.06-18.24 38.359-18.24 67.051 0 28.472 6.09 50.606 17.75 66.556 12.32 16.84 29.41 25.34 51.35 25.34 10.97 0 20.85-2.17 29.58-6.44 3.36-1.63 6.56-3.65 9.57-6.05Zm-23.87-120.95c9.17 0 15.99 2.502 20.11 8.309 0 .004 0 .007.01.01 4.79 6.725 6.75 17.957 6.75 33.525v5.399c0 13.879-1.81 23.73-6.52 29.304-4.26 5.022-10.94 7.153-19.74 7.153-17.7 0-24.76-14.602-24.76-41.555 0-27.319 6.77-42.145 24.15-42.145Z" style="fill:#2e77f8" transform="rotate(.081)"/><path d="M33.857 9.257a2 2 0 0 0-2.489-1.155l-6 2 1.265 3.795 4.21-1.404 1.571 3.927-4.739 1.579h-8.513c-1.879 0-3.746-.303-5.529-.897a21.5 21.5 0 0 0-6.795-1.103H6a2 2 0 0 0 0 4h.838c1.879 0 3.747.303 5.53.898.191.064.384.125.577.183a8.978 8.978 0 0 1 4.474 5.175c.033.101.074.198.12.291l-2.842.426a.999.999 0 0 1-.321-1.806 8.1 8.1 0 0 0-1.542-1.542 1 1 0 0 1-1.728-.999 7.955 7.955 0 0 0-2.107-.564 1 1 0 0 1-1.997 0 7.991 7.991 0 0 0-2.107.563 1 1 0 0 1-1.728 1c-.581.441-1.1.96-1.542 1.542a1 1 0 0 1-1 1.728 7.953 7.953 0 0 0-.563 2.107 1 1 0 0 1 0 1.996 7.95 7.95 0 0 0 .563 2.108 1 1 0 0 1 1 1.728 8.043 8.043 0 0 0 1.542 1.542 1 1 0 0 1 1.728 1 7.991 7.991 0 0 0 2.107.563 1 1 0 0 1 1.997 0 7.955 7.955 0 0 0 2.107-.564 1 1 0 0 1 1.728-.999 8.1 8.1 0 0 0 1.542-1.542.999.999 0 0 1 .999-1.728 7.952 7.952 0 0 0 .564-2.108.987.987 0 0 1-.394-.107l9.885-1.483a10.005 10.005 0 0 0 5.991-3.245l3.372-3.794.599 1.497a.997.997 0 0 1-.225-.241 8.015 8.015 0 0 0-1.542 1.542 1 1 0 0 1-1 1.728 7.943 7.943 0 0 0-.563 2.107 1 1 0 0 1 0 1.996 7.95 7.95 0 0 0 .563 2.108 1 1 0 0 1 1 1.728c.441.581.96 1.1 1.542 1.542a1 1 0 0 1 1.728.999 7.955 7.955 0 0 0 2.107.564 1 1 0 0 1 1.996 0 7.952 7.952 0 0 0 2.108-.564 1 1 0 0 1 1.728-1c.581-.441 1.1-.96 1.542-1.542a.999.999 0 0 1 .999-1.728 7.905 7.905 0 0 0 .563-2.107 1 1 0 0 1 0-1.996 7.953 7.953 0 0 0-.563-2.107 1 1 0 0 1-1-1.728 8.01 8.01 0 0 0-1.541-1.542 1 1 0 0 1-1.728-1 7.95 7.95 0 0 0-2.108-.563 1 1 0 0 1-1.811.52l-.177-.442a1.03 1.03 0 0 1-.008-.078l-.022.003-5.123-12.807Zm2.999 18.269 1.287 3.216a1.999 1.999 0 1 0 3.714-1.485L40.57 26.04a4 4 0 1 1-3.714 1.486Zm-25.726-.018A4 4 0 1 0 8 33.999a4.001 4.001 0 0 0 3.724-2.536l-3.427.514a2 2 0 0 1-.594-3.955l3.427-.514Z" style="fill:#2e77f8" transform="translate(254.761 512.92) scale(3.48119)"/><path d="M427.941 2630.96c73.589 0 133.334 59.74 133.334 133.33s-59.745 133.33-133.334 133.33c-73.588 0-133.333-59.74-133.333-133.33s59.745-133.33 133.333-133.33Zm0 9.6c68.291 0 123.734 55.44 123.734 123.73s-55.443 123.73-123.734 123.73c-68.29 0-123.733-55.44-123.733-123.73s55.443-123.73 123.733-123.73Z" style="fill:#2e77f8" transform="matrix(1.25 0 0 1.25 -196.617 -2862.49)"/><path d="M15.5 5.5c1.1 0 2-.9 2-2s-.9-2-2-2-2 .9-2 2 .9 2 2 2ZM5 22c2.8 0 5-2.2 5-5s-2.2-5-5-5-5 2.2-5 5 2.2 5 5 5Zm0-8.5c1.9 0 3.5 1.6 3.5 3.5S6.9 20.5 5 20.5 1.5 18.9 1.5 17s1.6-3.5 3.5-3.5Zm2.8-2.3L11 14v5h2v-6.2l-2.2-2.3 2.4-2.4.8.8c1.3 1.3 3 2.1 5.1 2.1V9c-1.5 0-2.7-.6-3.6-1.5l-1.9-1.9c-.5-.4-1-.6-1.6-.6-.6 0-1.1.2-1.4.6L7.8 8.4c-.4.4-.6.9-.6 1.4 0 .6.2 1.1.6 1.4ZM19 12c-2.8 0-5 2.2-5 5s2.2 5 5 5 5-2.2 5-5-2.2-5-5-5Zm0 8.5c-1.9 0-3.5-1.6-3.5-3.5s1.6-3.5 3.5-3.5 3.5 1.6 3.5 3.5-1.6 3.5-3.5 3.5Z" style="fill:#2e77f8;fill-rule:nonzero" transform="translate(513.235 258.84) scale(6.94443)"/><path d="M427.941 2630.96c73.589 0 133.334 59.74 133.334 133.33s-59.745 133.33-133.334 133.33c-73.588 0-133.333-59.74-133.333-133.33s59.745-133.33 133.333-133.33Zm0 9.6c68.291 0 123.734 55.44 123.734 123.73s-55.443 123.73-123.734 123.73c-68.29 0-123.733-55.44-123.733-123.73s55.443-123.73 123.733-123.73Z" style="fill:#2e77f8" transform="matrix(1.25 0 0 1.25 61.647 -3114.92)"/><path d="M12.387 7.194c-1.366-.711-2.482.39-2.624 1.806l-.286 2.863L7.968 22h2l1.011-7h.785l.957 1.093c.159.182.247.416.247.659V22h2v-5.248c0-.727-.264-1.429-.742-1.976l-1.523-1.74c.202-.783.321-1.619.389-2.568a2.996 2.996 0 0 0 1.705.532h1.957l-.786 11h2l1-14h-2l-.071 1h-2.1a1 1 0 0 1-.708-.293l-.922-.922a3.403 3.403 0 0 0-.627-.504 1.98 1.98 0 0 0-.153-.087Zm-3.06.796-.736 5.151a1.001 1.001 0 0 1-.99.859H5.777a.744.744 0 0 1-.731-.891l.322-1.607A.623.623 0 0 1 5.98 11a.624.624 0 0 0 .606-.473l.693-2.77A1 1 0 0 1 8.249 7h.219c.528 0 .933.467.859.99ZM11.968 6a2 2 0 1 0 .001-3.999A2 2 0 0 0 11.968 6Z" style="fill:#2e77f8;fill-rule:nonzero" transform="translate(863.121 163.363) scale(6.94444)"/><path d="M427.941 2630.96c73.589 0 133.334 59.74 133.334 133.33s-59.745 133.33-133.334 133.33c-73.588 0-133.333-59.74-133.333-133.33s59.745-133.33 133.333-133.33Zm0 9.6c68.291 0 123.734 55.44 123.734 123.73s-55.443 123.73-123.734 123.73c-68.29 0-123.733-55.44-123.733-123.73s55.443-123.73 123.733-123.73Z" style="fill:#2e77f8" transform="matrix(1.25 0 0 1.25 411.527 -3208.67)"/><path d="m20.5 3-.16.03L15 5.1 9 3 3.36 4.9c-.21.07-.36.25-.36.48V20.5c0 .28.22.5.5.5l.16-.03L9 18.9l6 2.1 5.64-1.9c.21-.07.36-.25.36-.48V3.5c0-.28-.22-.5-.5-.5ZM15 19l-6-2.11V5l6 2.11V19Z" style="fill:#2e77f8;fill-rule:nonzero" transform="translate(1212.43 259.234) scale(6.94442)"/><path d="M427.941 2630.96c73.589 0 133.334 59.74 133.334 133.33s-59.745 133.33-133.334 133.33c-73.588 0-133.333-59.74-133.333-133.33s59.745-133.33 133.333-133.33Zm0 9.6c68.291 0 123.734 55.44 123.734 123.73s-55.443 123.73-123.734 123.73c-68.29 0-123.733-55.44-123.733-123.73s55.443-123.73 123.733-123.73Z" style="fill:#2e77f8" transform="matrix(1.25 0 0 1.25 760.835 -3112.78)"/><path d="M6 10c-1.1 0-2 .9-2 2s.9 2 2 2 2-.9 2-2-.9-2-2-2Zm12 0c-1.1 0-2 .9-2 2s.9 2 2 2 2-.9 2-2-.9-2-2-2Zm-6 0c-1.1 0-2 .9-2 2s.9 2 2 2 2-.9 2-2-.9-2-2-2Z" style="fill:#2e77f8;fill-rule:nonzero" transform="translate(1469.13 513.231) scale(6.94442)"/><path d="M427.941 2630.96c73.589 0 133.334 59.74 133.334 133.33s-59.745 133.33-133.334 133.33c-73.588 0-133.333-59.74-133.333-133.33s59.745-133.33 133.333-133.33Zm0 9.6c68.291 0 123.734 55.44 123.734 123.73s-55.443 123.73-123.734 123.73c-68.29 0-123.733-55.44-123.733-123.73s55.443-123.73 123.733-123.73Z" style="fill:#2e77f8" transform="matrix(1.25 0 0 1.25 1017.54 -2858.79)"/></svg>