<?xml version="1.0" encoding="UTF-8" standalone="no"?>
<!DOCTYPE svg PUBLIC "-//W3C//DTD SVG 1.1//EN" "http://www.w3.org/Graphics/SVG/1.1/DTD/svg11.dtd">
<svg width="100%" height="100%" viewBox="0 0 250 250" version="1.1" xmlns="http://www.w3.org/2000/svg" xmlns:xlink="http://www.w3.org/1999/xlink" xml:space="preserve" xmlns:serif="http://www.serif.com/" style="fill-rule:evenodd;clip-rule:evenodd;stroke-linejoin:round;stroke-miterlimit:2;">
    <g>
        <g transform="matrix(1.30208,0,0,1.30208,0,0)">
            <rect x="0" y="0" width="192" height="192" style="fill:none;"/>
        </g>
        <g transform="matrix(1,0,0,1,29,20)">
            <path d="M176,96C176,51.817 140.183,16 96,16C51.817,16 16,51.817 16,96C16,129.13 36.14,157.557 64.844,169.704C75.265,174.231 79.634,176.157 82.845,182.578C83.181,183.251 83.466,183.891 83.733,184.486C86.605,190.886 89.661,194 96,194C102.339,194 105.395,190.887 108.268,184.483C108.534,183.891 108.82,183.249 109.156,182.576C112.358,176.173 116.415,174.242 127.113,169.722C155.841,157.585 176,129.146 176,96ZM168,96C168,125.833 149.856,151.429 124,162.353C110.634,168 106,171 102,179C101.611,179.779 101.278,180.52 100.969,181.208C99.692,184.055 98.818,186 96,186C93.182,186 92.309,184.055 91.031,181.208C90.722,180.52 90.39,179.779 90,179C86,171 81,168 68,162.353C42.144,151.429 24,125.833 24,96C24,56.236 56.236,24 96,24C135.765,24 168,56.236 168,96ZM136,96C136,118.091 118.091,136 96,136C73.909,136 56,118.091 56,96C56,73.909 73.909,56 96,56C118.091,56 136,73.909 136,96ZM128,96C128,113.673 113.673,128 96,128C78.327,128 64,113.673 64,96C64,78.327 78.327,64 96,64C113.673,64 128,78.327 128,96Z" style="fill:rgb(46,119,248);"/>
        </g>
        <g transform="matrix(1,0,0,1,29,20)">
            <path d="M172,96C172,54.026 137.974,20 96,20C54.026,20 20,54.026 20,96C20,127.481 39.142,154.493 66.422,166.029C78.131,171.115 82.817,173.579 86.422,180.789C86.785,181.515 87.094,182.206 87.382,182.847C89.454,187.465 91.427,190 96,190C100.573,190 102.546,187.465 104.618,182.846C104.906,182.205 105.216,181.514 105.578,180.788C109.179,173.587 113.525,171.121 125.557,166.038C152.849,154.507 172,127.49 172,96ZM168,96C168,125.833 149.856,151.429 124,162.353C110.634,168 106,171 102,179C101.611,179.779 101.278,180.52 100.969,181.208C99.692,184.055 98.818,186 96,186C93.182,186 92.309,184.055 91.031,181.208C90.722,180.52 90.39,179.779 90,179C86,171 81,168 68,162.353C42.144,151.429 24,125.833 24,96C24,56.236 56.236,24 96,24C135.765,24 168,56.236 168,96ZM136,96C136,118.091 118.091,136 96,136C73.909,136 56,118.091 56,96C56,73.909 73.909,56 96,56C118.091,56 136,73.909 136,96ZM132,96C132,115.882 115.882,132 96,132C76.118,132 60,115.882 60,96C60,76.118 76.118,60 96,60C115.882,60 132,76.118 132,96Z" style="fill:rgb(243,243,243);"/>
        </g>
        <g transform="matrix(1,0,0,1,29,20)">
            <path d="M168,96C168,125.833 149.856,151.429 124,162.353C110.634,168 106,171 102,179C101.611,179.779 101.278,180.52 100.969,181.208C99.692,184.055 98.818,186 96,186C93.182,186 92.309,184.055 91.031,181.208C90.722,180.52 90.39,179.779 90,179C86,171 81,168 68,162.353C42.145,151.429 24,125.833 24,96C24,56.236 56.236,24 96,24C135.765,24 168,56.236 168,96ZM136,96C136,118.091 118.091,136 96,136C73.909,136 56,118.091 56,96C56,73.909 73.909,56 96,56C118.091,56 136,73.909 136,96Z" style="fill:rgb(255,136,0);"/>
            <clipPath id="_clip1">
                <path d="M168,96C168,125.833 149.856,151.429 124,162.353C110.634,168 106,171 102,179C101.611,179.779 101.278,180.52 100.969,181.208C99.692,184.055 98.818,186 96,186C93.182,186 92.309,184.055 91.031,181.208C90.722,180.52 90.39,179.779 90,179C86,171 81,168 68,162.353C42.145,151.429 24,125.833 24,96C24,56.236 56.236,24 96,24C135.765,24 168,56.236 168,96ZM136,96C136,118.091 118.091,136 96,136C73.909,136 56,118.091 56,96C56,73.909 73.909,56 96,56C118.091,56 136,73.909 136,96Z"/>
            </clipPath>
            <g clip-path="url(#_clip1)">
                <g transform="matrix(1,0,0,1,-29,-20)">
                    <path d="M143.647,151.396L152.05,182.756C144.224,186.095 139.516,188.533 136.137,191.761L126.547,155.971C132.706,155.736 138.507,154.109 143.647,151.396ZM109.327,172.537L105.627,186.348C103.208,185.106 100.374,183.818 97,182.353C86.249,177.811 76.832,170.732 69.495,161.864L109.327,172.537ZM68.202,101.305L57.521,141.166C54.597,133.33 53,124.851 53,116C53,109.729 53.802,103.646 55.308,97.85L68.202,101.305ZM192.479,90.833C195.403,98.67 197,107.148 197,116C197,122.271 196.198,128.355 194.693,134.151L181.798,130.695L192.479,90.833ZM115.053,44.682L123.453,76.029C117.294,76.264 111.493,77.891 106.353,80.603L97.953,49.253C103.356,47.061 109.087,45.506 115.053,44.682ZM144.128,46.569C158.58,50.54 171.215,58.905 180.505,70.137L140.673,59.463L144.128,46.569Z" style="fill:rgb(46,119,248);"/>
                </g>
            </g>
        </g>
        <g transform="matrix(0.993377,0,0,0.993377,0.680648,0.768212)">
            <path d="M127.911,98.606L131.707,98.606L122.385,133.394L118.589,133.394L127.911,98.606ZM116.481,124.519L107.963,116L116.481,107.481L113.889,104.889L102.778,116L113.889,127.111L116.481,124.519ZM133.815,124.519L142.333,116L133.815,107.481L136.407,104.889L147.519,116L136.407,127.111L133.815,124.519Z" style="fill:rgb(46,119,248);fill-rule:nonzero;"/>
        </g>
    </g>
</svg>
